<?xml version="1.0" encoding="UTF-8"?>
<!DOCTYPE svg PUBLIC "-//W3C//DTD SVG 1.1//EN" "http://www.w3.org/Graphics/SVG/1.1/DTD/svg11.dtd">
<!-- Creator: CorelDRAW -->
<svg xmlns="http://www.w3.org/2000/svg" xml:space="preserve" width="2.75591in" height="2.75591in" version="1.1" style="shape-rendering:geometricPrecision; text-rendering:geometricPrecision; image-rendering:optimizeQuality; fill-rule:evenodd; clip-rule:evenodd"
viewBox="0 0 209.34 209.34"
 xmlns:xlink="http://www.w3.org/1999/xlink"
 xmlns:xodm="http://www.corel.com/coreldraw/odm/2003">
 <defs>
  <style type="text/css">
   <![CDATA[
    .fil1 {fill:#FEFEFE}
    .fil0 {fill:url(#id0)}
   ]]>
  </style>
  <linearGradient id="id0" gradientUnits="userSpaceOnUse" x1="-0" y1="209.34" x2="209.34" y2="0">
   <stop offset="0" style="stop-opacity:1; stop-color:#6E48AA"/>
   <stop offset="1" style="stop-opacity:1; stop-color:#9D50BB"/>
  </linearGradient>
 </defs>
 <g id="Layer_x0020_1">
  <metadata id="CorelCorpID_0Corel-Layer"/>
  <rect class="fil0" width="209.34" height="209.34" rx="20.93" ry="20.93"/>
  <path class="fil1" d="M91.87 44.85c-4.53,4.44 -6.71,3.01 -6.62,-4.21 0,-1.25 0.28,-2.96 0.93,-5.09 0.65,-2.13 1.57,-4.12 2.87,-5.97 1.25,-1.85 2.41,-3.33 3.52,-4.44 1.06,-1.16 2.64,-2.22 4.67,-3.29 2.04,-1.02 4.77,-1.67 8.28,-1.9 3.47,-0.23 6.48,0.37 8.98,1.71 2.54,1.34 4.72,3.33 6.57,5.88 1.9,2.59 2.87,5.69 3.01,9.3 0.14,3.61 -0.37,7.17 -1.57,10.64 -1.16,3.47 -2.87,6.8 -5.09,9.9 -2.17,3.1 -5.23,6.29 -9.11,9.53 -3.89,3.29 -6.89,5.14 -8.98,5.6 -8.37,0.79 -9.67,-1.76 -3.79,-7.73 2.73,-2.36 4.95,-4.49 6.66,-6.39 1.71,-1.9 3.24,-3.7 4.53,-5.37 1.3,-1.67 2.5,-3.38 3.52,-5.14 1.06,-1.76 1.85,-3.79 2.36,-6.01 0.56,-2.27 0.28,-4.16 -0.88,-5.74 -1.11,-1.53 -2.5,-2.59 -4.12,-3.24 -1.62,-0.6 -3.66,-0.56 -6.11,0.28 -2.45,0.83 -4.35,2.27 -5.74,4.35 -1.43,2.08 -2.68,4.49 -3.89,7.31zm80.27 -3.79c-1.72,28.66 -14.31,45.41 -36.78,61.48 -1.05,0.75 -2.1,1.49 -3.15,2.21 7.16,1.34 12.63,5.2 13.28,13.79 2.65,34.82 -74.03,73.81 -103.22,70.74 -5.58,-0.59 -6.93,-5.64 -2.09,-6.7 10.12,-2.21 40.47,-13.75 60.66,-26.56 20.19,-12.81 34.11,-24.23 30.62,-36.8 -4.67,-4.19 -25.63,2.65 -29.29,2.95 -6.52,0.54 -10.54,-3.75 -8.48,-9.21 3.17,-8.39 66.45,-25.54 69.18,-70.76 -0.03,-3.87 0.83,-7.19 4.7,-7.23 3.87,-0.03 4.55,2.23 4.59,6.1z"/>
 </g>
</svg>
