<?xml version="1.0" encoding="UTF-8"?>
<!DOCTYPE svg PUBLIC "-//W3C//DTD SVG 1.1//EN" "http://www.w3.org/Graphics/SVG/1.1/DTD/svg11.dtd">
<!-- Creator: CorelDRAW -->
<svg xmlns="http://www.w3.org/2000/svg" xml:space="preserve" width="5.79251in" height="2.23183in" version="1.1" style="shape-rendering:geometricPrecision; text-rendering:geometricPrecision; image-rendering:optimizeQuality; fill-rule:evenodd; clip-rule:evenodd"
viewBox="0 0 1398.23 538.73"
 xmlns:xlink="http://www.w3.org/1999/xlink"
 xmlns:xodm="http://www.corel.com/coreldraw/odm/2003">
 <defs>
  <style type="text/css">
   <![CDATA[
    .fil1 {fill:#848688;fill-rule:nonzero}
    .fil0 {fill:url(#id0)}
   ]]>
  </style>
  <linearGradient id="id0" gradientUnits="userSpaceOnUse" x1="312.9" y1="665.89" x2="855.1" y2="-285.09">
   <stop offset="0" style="stop-opacity:1; stop-color:#6E48AA"/>
   <stop offset="1" style="stop-opacity:0.8; stop-color:#9D50BB"/>
  </linearGradient>
 </defs>
 <g id="Layer_x0020_1">
  <metadata id="CorelCorpID_0Corel-Layer"/>
  <path class="fil0" d="M866.33 67.22c-5.48,91.08 -45.47,144.29 -116.88,195.37 -3.34,2.39 -6.68,4.73 -10.02,7.01 22.74,4.25 40.13,16.54 42.21,43.81 8.42,110.64 -235.26,234.55 -328.01,224.78 -17.73,-1.87 -22.04,-17.93 -6.63,-21.29 32.16,-7.03 128.59,-43.69 192.75,-84.4 64.16,-40.71 108.38,-77.01 97.29,-116.94 -14.83,-13.3 -81.45,8.41 -93.09,9.37 -20.73,1.71 -33.5,-11.92 -26.95,-29.28 10.07,-26.66 211.17,-81.15 219.83,-224.85 -0.1,-12.3 2.63,-22.86 14.93,-22.97 12.3,-0.11 14.47,7.09 14.57,19.39zm-684.72 98.41l-120.46 0 0 77.17 100.71 0c9.28,0 16.31,2.11 20.87,6.26 4.57,4.22 6.89,9.84 6.89,16.8 0,7.03 -2.32,12.58 -6.96,16.73 -4.71,4.15 -11.67,6.18 -20.8,6.18l-100.71 0 0 99.38c0,12.65 -2.88,22 -8.57,28.11 -5.69,6.11 -13,9.14 -21.86,9.14 -9.07,0 -16.45,-3.09 -22.14,-9.28 -5.69,-6.18 -8.57,-15.53 -8.57,-27.97l0 -232.28c0,-8.78 1.34,-15.95 3.94,-21.51 2.6,-5.55 6.68,-9.63 12.23,-12.16 5.55,-2.53 12.65,-3.79 21.3,-3.79l144.15 0c9.77,0 17.01,2.18 21.72,6.47 4.71,4.36 7.1,10.05 7.1,17.01 0,7.17 -2.39,12.93 -7.1,17.29 -4.71,4.29 -11.95,6.47 -21.72,6.47zm760.75 -18.13l0 83.28c7.17,-8.22 14.14,-14.74 20.94,-19.54 6.76,-4.76 14.27,-8.44 22.49,-10.82 8.29,-2.4 17.15,-3.58 26.64,-3.58 14.27,0 26.93,3.01 38.02,9.07 11.04,6.03 19.51,14.92 26,26.36 3.84,6.77 6.71,14.19 8.08,22.56 1.36,8.29 2.04,17.85 2.04,28.68l0 107.74c0,11.24 -2.6,19.75 -7.73,25.51 -5.13,5.76 -12.02,8.65 -20.52,8.65 -18.55,0 -27.83,-11.39 -27.83,-34.16l0 -94.95c0,-17.99 -2.69,-31.83 -8.01,-41.47 -5.36,-9.69 -15.53,-14.55 -30.5,-14.55 -9.98,0 -19.05,2.88 -27.06,8.57 -8.01,5.69 -14.2,13.37 -17.99,23.33 -3.16,8.31 -4.57,23.26 -4.57,44.7l0 74.36c0,11.1 -2.53,19.54 -7.52,25.37 -4.99,5.83 -11.95,8.79 -20.8,8.79 -18.49,0 -27.76,-11.39 -27.76,-34.16l0 -243.74c0,-11.39 2.46,-19.89 7.31,-25.58 4.85,-5.69 11.67,-8.57 20.45,-8.57 8.86,0 15.81,2.88 20.8,8.65 4.99,5.76 7.52,14.27 7.52,25.51zm-439.41 246.34c-13.63,10.54 -26.78,18.41 -39.43,23.69 -12.72,5.27 -26.99,7.87 -42.73,7.87 -14.41,0 -27.13,-2.88 -38.02,-8.57 -10.89,-5.69 -19.33,-13.35 -25.23,-23.12 -5.9,-9.77 -8.86,-20.31 -8.86,-31.7 0,-15.39 4.85,-28.46 14.62,-39.29 9.77,-10.89 23.19,-18.13 40.27,-21.86 3.51,-0.84 12.37,-2.67 26.5,-5.55 14.13,-2.88 26.29,-5.48 36.34,-7.94 10.05,-2.39 21.01,-5.27 32.82,-8.72 -0.7,-14.83 -3.66,-25.72 -8.93,-32.61 -5.34,-6.96 -16.23,-10.4 -32.89,-10.4 -14.27,0 -25.02,1.97 -32.19,5.97 -7.24,3.94 -13.42,9.91 -18.56,17.92 -5.13,7.94 -8.78,13.14 -10.89,15.74 -2.18,2.53 -6.75,3.8 -13.7,3.8 -6.33,0 -11.81,-2.04 -16.38,-6.11 -4.57,-4.01 -6.89,-9.21 -6.89,-15.53 0,-9.91 3.51,-19.54 10.47,-28.89 7.03,-9.35 17.92,-17.01 32.75,-23.05 14.83,-6.05 33.31,-9.07 55.45,-9.07 24.67,0 44.14,2.95 58.26,8.79 14.13,5.83 24.11,15.04 29.94,27.69 5.83,12.65 8.78,29.38 8.78,50.25 0,13.21 -0.07,24.39 -0.14,33.6 -0.07,9.21 -0.14,19.47 -0.28,30.71 0,10.54 1.76,21.58 5.27,33.03 3.51,11.39 5.2,18.77 5.2,22.07 0,5.76 -2.67,11.03 -8.08,15.74 -5.48,4.71 -11.6,7.1 -18.48,7.1 -5.76,0 -11.46,-2.67 -17.08,-8.08 -5.62,-5.41 -11.6,-13.21 -17.92,-23.47zm-3.72 -81.46c-8.22,3.02 -20.17,6.26 -35.92,9.56 -15.67,3.37 -26.57,5.9 -32.61,7.45 -6.04,1.62 -11.81,4.71 -17.29,9.28 -5.48,4.64 -8.22,11.03 -8.22,19.33 0,8.5 3.23,15.74 9.7,21.72 6.4,5.97 14.83,9 25.3,9 11.1,0 21.37,-2.46 30.71,-7.31 9.42,-4.92 16.3,-11.18 20.73,-18.91 5.06,-8.5 7.59,-22.56 7.59,-42.1l0 -8.01zm-252.6 78.86l0 -243.74c0,-11.24 2.53,-19.75 7.52,-25.51 4.99,-5.76 11.74,-8.65 20.24,-8.65 8.43,0 15.32,2.88 20.52,8.57 5.2,5.69 7.8,14.2 7.8,25.58l0 243.74c0,11.39 -2.67,19.89 -7.94,25.58 -5.27,5.69 -12.09,8.57 -20.38,8.57 -8.22,0 -14.9,-2.95 -20.03,-8.86 -5.13,-5.9 -7.73,-14.34 -7.73,-25.3zm435.35 -311.98c-14.41,14.11 -21.32,9.56 -21.02,-13.38 0,-3.97 0.88,-9.41 2.94,-16.17 2.06,-6.76 5,-13.09 9.12,-18.97 3.97,-5.88 7.65,-10.59 11.17,-14.11 3.38,-3.68 8.38,-7.06 14.85,-10.44 6.47,-3.23 15.14,-5.29 26.32,-6.03 11.03,-0.74 20.58,1.18 28.52,5.44 8.09,4.26 15,10.59 20.88,18.67 6.03,8.23 9.12,18.08 9.56,29.55 0.44,11.47 -1.18,22.79 -5,33.82 -3.68,11.03 -9.12,21.61 -16.17,31.46 -6.91,9.85 -16.61,20 -28.97,30.29 -12.35,10.44 -21.91,16.32 -28.52,17.79 -26.61,2.5 -30.73,-5.59 -12.06,-24.55 8.67,-7.5 15.73,-14.26 21.17,-20.29 5.44,-6.03 10.29,-11.76 14.41,-17.06 4.12,-5.29 7.94,-10.73 11.17,-16.32 3.38,-5.59 5.88,-12.06 7.5,-19.11 1.76,-7.2 0.88,-13.23 -2.79,-18.23 -3.53,-4.85 -7.94,-8.23 -13.09,-10.29 -5.15,-1.91 -11.62,-1.76 -19.41,0.88 -7.79,2.65 -13.82,7.2 -18.23,13.82 -4.56,6.62 -8.53,14.26 -12.35,23.23z"/>
  <path class="fil1" d="M1199.34 382.01l-20.66 0 0 31.52c0,4.51 -1.06,7.9 -3.19,10.24 -2.12,2.33 -4.82,3.5 -8.03,3.5 -3.4,0 -6.14,-1.14 -8.22,-3.45 -2.07,-2.31 -3.11,-5.7 -3.11,-10.13l0 -85.81c0,-4.95 1.14,-8.5 3.42,-10.63 2.28,-2.12 5.88,-3.19 10.86,-3.19l28.92 0c8.55,0 15.14,0.65 19.75,1.97 4.56,1.27 8.5,3.37 11.82,6.3 3.32,2.95 5.83,6.53 7.54,10.78 1.74,4.25 2.59,9.04 2.59,14.36 0,11.35 -3.5,19.93 -10.47,25.79 -7,5.83 -17.39,8.76 -31.23,8.76zm-5.47 -51l-15.19 0 0 34.06 15.19 0c5.31,0 9.77,-0.57 13.35,-1.68 3.55,-1.11 6.27,-2.93 8.16,-5.47 1.87,-2.51 2.8,-5.86 2.8,-9.95 0,-4.92 -1.45,-8.92 -4.33,-12 -3.24,-3.29 -9.9,-4.95 -19.98,-4.95zm85.11 66.35l0 17.31c0,4.2 -0.99,7.33 -2.95,9.43 -1.97,2.1 -4.46,3.16 -7.49,3.16 -2.98,0 -5.44,-1.06 -7.36,-3.19 -1.92,-2.12 -2.88,-5.26 -2.88,-9.41l0 -57.72c0,-9.3 3.37,-13.97 10.08,-13.97 3.42,0 5.91,1.09 7.41,3.27 1.53,2.18 2.36,5.42 2.51,9.67 2.46,-4.25 5,-7.49 7.62,-9.67 2.62,-2.18 6.09,-3.27 10.45,-3.27 4.35,0 8.58,1.09 12.67,3.27 4.1,2.18 6.14,5.08 6.14,8.68 0,2.54 -0.86,4.61 -2.62,6.27 -1.74,1.66 -3.63,2.46 -5.65,2.46 -0.75,0 -2.59,-0.47 -5.49,-1.4 -2.93,-0.93 -5.49,-1.4 -7.72,-1.4 -3.03,0 -5.49,0.8 -7.44,2.38 -1.92,1.61 -3.42,3.96 -4.48,7.1 -1.06,3.14 -1.79,6.87 -2.2,11.2 -0.39,4.33 -0.6,9.59 -0.6,15.81zm119.25 -12.21c0,6.19 -0.96,11.87 -2.88,17.08 -1.94,5.21 -4.72,9.69 -8.37,13.43 -3.63,3.76 -8.01,6.61 -13.06,8.6 -5.05,2 -10.76,3.01 -17.08,3.01 -6.3,0 -11.95,-1.01 -16.95,-3.03 -5,-2.02 -9.36,-4.92 -13.04,-8.71 -3.66,-3.76 -6.45,-8.22 -8.35,-13.35 -1.89,-5.16 -2.85,-10.83 -2.85,-17.05 0,-6.27 0.96,-12.03 2.88,-17.24 1.94,-5.21 4.69,-9.67 8.29,-13.37 3.6,-3.68 7.96,-6.53 13.06,-8.53 5.11,-2 10.76,-3.01 16.95,-3.01 6.27,0 11.97,1.01 17.08,3.03 5.11,2.02 9.49,4.92 13.14,8.68 3.65,3.73 6.43,8.19 8.32,13.37 1.89,5.16 2.85,10.86 2.85,17.08zm-20.84 0c0,-8.45 -1.87,-15.01 -5.57,-19.72 -3.73,-4.69 -8.71,-7.05 -14.98,-7.05 -4.07,0 -7.62,1.04 -10.7,3.14 -3.08,2.1 -5.47,5.21 -7.13,9.3 -1.68,4.1 -2.51,8.89 -2.51,14.33 0,5.42 0.83,10.16 2.46,14.2 1.66,4.04 3.99,7.15 7.05,9.3 3.06,2.15 6.69,3.21 10.83,3.21 6.27,0 11.25,-2.36 14.98,-7.1 3.71,-4.72 5.57,-11.27 5.57,-19.62z"/>
 </g>
</svg>
